HIERARCHY
ROOT Hips
{
 OFFSET 0.000000 0.000000 0.000000
 CHANNELS 6 Xposition Yposition Zposition Yrotation Xrotation Zrotation
 JOINT Chest
 {
  OFFSET 0.000000 9.585900 0.002600
  CHANNELS 3 Yrotation Xrotation Zrotation
  JOINT Chest2
  {
   OFFSET 0.000000 9.601200 -0.005300
   CHANNELS 3 Yrotation Xrotation Zrotation
   JOINT Chest3
   {
    OFFSET 0.000000 9.561800 0.000000
    CHANNELS 3 Yrotation Xrotation Zrotation
    JOINT Chest4
    {
     OFFSET 0.000000 9.552100 0.000000
     CHANNELS 3 Yrotation Xrotation Zrotation
     JOINT Neck
     {
      OFFSET 0.000000 14.453000 0.000000
      CHANNELS 3 Yrotation Xrotation Zrotation
      JOINT Head
      {
       OFFSET 0.000000 8.936500 -0.011300
       CHANNELS 3 Yrotation Xrotation Zrotation
       End Site
       {
        OFFSET 0.000000 17.073600 -0.006000
       }
      }
     }
     JOINT RightCollar
     {
      OFFSET -2.921100 9.558500 0.000000
      CHANNELS 3 Yrotation Xrotation Zrotation
      JOINT RightShoulder
      {
       OFFSET -13.519700 0.000000 0.000000
       CHANNELS 3 Yrotation Xrotation Zrotation
       JOINT RightElbow
       {
        OFFSET 0.000000 -29.696600 0.000000
        CHANNELS 3 Yrotation Xrotation Zrotation
        JOINT RightWrist
        {
         OFFSET 0.000000 -24.004700 0.000000
         CHANNELS 3 Yrotation Xrotation Zrotation
         End Site
         {
          OFFSET 0.000000 -17.728500 0.000000
         }
        }
       }
      }
     }
     JOINT LeftCollar
     {
      OFFSET 2.921100 9.558500 0.000000
      CHANNELS 3 Yrotation Xrotation Zrotation
      JOINT LeftShoulder
      {
       OFFSET 13.519700 0.000000 0.000000
       CHANNELS 3 Yrotation Xrotation Zrotation
       JOINT LeftElbow
       {
        OFFSET 0.000000 -29.696600 0.000000
        CHANNELS 3 Yrotation Xrotation Zrotation
        JOINT LeftWrist
        {
         OFFSET 0.000000 -24.004700 0.000000
         CHANNELS 3 Yrotation Xrotation Zrotation
         End Site
         {
          OFFSET 0.000000 -17.728500 0.000000
         }
        }
       }
      }
     }
    }
   }
  }
 }
 JOINT RightHip
 {
  OFFSET -7.771700 -0.012900 -0.001300
  CHANNELS 3 Yrotation Xrotation Zrotation
  JOINT RightKnee
  {
   OFFSET 0.000000 -40.869800 0.001200
   CHANNELS 3 Yrotation Xrotation Zrotation
   JOINT RightAnkle
   {
    OFFSET 0.000000 -39.717900 0.002100
    CHANNELS 3 Yrotation Xrotation Zrotation
    JOINT RightToe
    {
     OFFSET 0.000000 -4.965400 11.033500
     CHANNELS 3 Yrotation Xrotation Zrotation
     End Site
     {
      OFFSET 0.000000 -1.423100 5.872300
     }
    }
   }
  }
 }
 JOINT LeftHip
 {
  OFFSET 7.771700 -0.012900 -0.001300
  CHANNELS 3 Yrotation Xrotation Zrotation
  JOINT LeftKnee
  {
   OFFSET 0.000000 -40.869800 0.001200
   CHANNELS 3 Yrotation Xrotation Zrotation
   JOINT LeftAnkle
   {
    OFFSET 0.000000 -39.717900 0.002100
    CHANNELS 3 Yrotation Xrotation Zrotation
    JOINT LeftToe
    {
     OFFSET 0.000000 -4.965400 11.033500
     CHANNELS 3 Yrotation Xrotation Zrotation
     End Site
     {
      OFFSET 0.000000 -1.423100 5.872300
     }
    }
   }
  }
 }
}
MOTION
Frames: 9
Frame Time: 0.008333
-209.886658 57.549252 -69.329328 160.553688 -10.375949 -0.206528 3.530646 9.771013 -0.132467 0.221888 0.637830 -0.068619 0.382077 1.099338 -0.116584 3.161447 9.246177 -0.756364 4.581525 17.551412 -0.706888 8.682083 -3.023027 -2.828486 2.878846 3.611467 -2.523568 -3.742907 -10.053820 -9.262161 -100.965180 -73.037079 129.322098 -2.938449 1.675963 -13.042240 -7.016629 3.605209 1.102584 8.927159 -11.286598 4.967589 81.587061 -64.344544 -125.002048 -0.774653 3.316130 -8.567575 -13.844002 -61.426744 6.452110 -35.001613 72.411937 -35.388590 -3.345310 -7.597698 -0.770483 -1.094004 0.850504 -0.441406 -2.827200 -64.238712 17.570312 42.142765 66.188238 35.876838 -18.763044 -10.819797 3.002918 0.456230 -0.953696 0.252697
-209.895367 57.549600 -69.319461 160.375294 -10.436991 -0.203325 3.534436 9.808278 -0.127652 0.220963 0.640965 -0.067378 0.380413 1.104597 -0.114393 3.142847 9.271953 -0.736878 4.362790 17.485777 -0.608368 8.249545 -3.166095 -2.579505 2.857189 3.562924 -2.559352 -3.724254 -10.032164 -9.142210 -101.683245 -73.207101 129.910869 -2.981143 1.884081 -13.599920 -6.987872 3.644251 1.078597 9.002940 -11.040689 5.066271 81.632061 -64.694076 -124.586706 -0.793723 3.418599 -8.307277 -13.456845 -61.384914 6.367801 -35.034722 72.355019 -35.426891 -3.436233 -7.518086 -0.698252 -1.087305 0.840481 -0.434303 -2.630100 -64.188760 17.613336 42.086035 66.235411 35.818144 -18.806044 -10.817885 3.020375 0.455222 -0.965971 0.260115
-209.902842 57.548715 -69.306561 160.171797 -10.494732 -0.203917 3.557897 9.847799 -0.112219 0.220564 0.644731 -0.065845 0.379609 1.110828 -0.111815 3.130227 9.301038 -0.713084 4.118263 17.410180 -0.498023 7.765526 -3.328692 -2.300068 2.832370 3.512698 -2.603475 -3.706307 -10.015245 -9.018214 -102.550529 -73.414865 130.642360 -3.070517 2.044655 -13.993421 -6.957273 3.677674 1.047388 9.086116 -10.779860 5.165558 81.869355 -65.133455 -124.311579 -0.842092 3.525376 -8.025069 -13.047174 -61.349786 6.301827 -35.055737 72.296478 -35.457394 -3.533568 -7.421933 -0.623996 -1.085987 0.823816 -0.423159 -2.459530 -64.138093 17.700241 42.079045 66.277114 35.786538 -18.799216 -10.822048 3.046204 0.419381 -0.967199 0.239080
-209.911391 57.545994 -69.288028 159.970016 -10.529247 -0.208749 3.574709 9.868380 -0.092725 0.220501 0.649013 -0.064026 0.379388 1.118012 -0.108782 3.121346 9.333340 -0.684584 3.847585 17.325783 -0.377923 7.229698 -3.507931 -1.993476 2.802018 3.464312 -2.651121 -3.692299 -10.002494 -8.891396 -103.619371 -73.644984 131.587850 -3.178180 2.106668 -14.169184 -6.925562 3.705257 1.010025 9.184795 -10.498460 5.264473 82.302344 -65.648708 -124.200949 -0.928046 3.630666 -7.734088 -12.648054 -61.338455 6.261122 -35.072656 72.231857 -35.491760 -3.628468 -7.326975 -0.577908 -1.071145 0.795419 -0.406391 -2.319990 -64.106509 17.805438 42.047621 66.302513 35.745800 -18.805264 -10.821826 3.024439 0.404397 -0.972382 0.269194
-209.922368 57.542084 -69.267780 159.765420 -10.559987 -0.204730 3.588906 9.888641 -0.081839 0.220698 0.653697 -0.062100 0.379651 1.125986 -0.105405 3.115466 9.368123 -0.653163 3.549995 17.232869 -0.247854 6.640328 -3.702819 -1.658845 2.762734 3.421746 -2.696123 -3.684299 -9.996170 -8.763837 -104.935797 -73.875820 132.814004 -3.288576 2.106865 -14.230636 -6.896190 3.728110 0.969060 9.302860 -10.193719 5.363830 82.918975 -66.221022 -124.258392 -1.047939 3.737010 -7.455819 -12.229864 -61.336148 6.215713 -35.102083 72.159531 -35.549947 -3.749935 -7.221531 -0.507991 -1.056795 0.776321 -0.387142 -2.178525 -64.076140 17.887090 42.058958 66.311066 35.745709 -18.786008 -10.825364 3.036986 0.421920 -0.966231 0.252045
-209.932471 57.538456 -69.252411 159.515408 -10.631634 -0.191492 3.645977 9.951267 -0.070539 0.221078 0.658908 -0.060194 0.380243 1.134733 -0.101986 3.110975 9.405867 -0.621391 3.225847 17.129894 -0.105014 5.997022 -3.915689 -1.291021 2.712149 3.387890 -2.733615 -3.681643 -10.003624 -8.639080 -106.479307 -74.088933 134.294896 -3.393257 2.099014 -14.268963 -6.871863 3.746176 0.930769 9.442767 -9.865620 5.462281 83.684444 -66.828173 -124.468569 -1.188529 3.850688 -7.208150 -11.752924 -61.296554 6.165671 -35.148375 72.079299 -35.639695 -3.877152 -7.107960 -0.436590 -1.042768 0.754076 -0.362930 -1.985115 -64.004219 17.999414 42.117112 66.346125 35.754552 -18.829166 -10.847420 3.066162 0.401391 -0.962246 0.245662
-209.938203 57.533765 -69.232091 159.280098 -10.695817 -0.221760 3.695439 10.005190 -0.020698 0.221325 0.664627 -0.058240 0.380599 1.144242 -0.098602 3.103435 9.447051 -0.589777 2.876440 17.014973 0.052653 5.301186 -4.149431 -0.886264 2.656932 3.364600 -2.763744 -3.685753 -10.030883 -8.518281 -108.137274 -74.282616 135.907290 -3.485835 2.089796 -14.281596 -6.850991 3.763417 0.902199 9.604601 -9.522099 5.556755 84.536815 -67.437207 -124.784028 -1.339357 3.974454 -7.007091 -11.374100 -61.258412 6.219680 -35.207662 71.993391 -35.755001 -4.005822 -6.965709 -0.334176 -1.033077 0.706287 -0.367767 -1.916821 -63.930350 18.239037 42.071860 66.386140 35.673171 -18.903208 -10.878784 3.051230 0.488003 -0.923402 0.263827
-209.947908 57.528148 -69.210333 159.057118 -10.755079 -0.241994 3.730685 10.055260 0.014630 0.221176 0.670734 -0.056282 0.380252 1.154547 -0.095262 3.089880 9.491921 -0.558871 2.503047 16.887882 0.224680 4.554716 -4.403616 -0.445262 2.601877 3.352660 -2.787345 -3.693995 -10.079952 -8.401643 -109.744743 -74.460445 137.500202 -3.573685 2.060907 -14.261294 -6.828573 3.791554 0.885715 9.782837 -9.177684 5.644063 85.389549 -68.014432 -125.137268 -1.499025 4.112445 -6.857803 -10.996945 -61.228867 6.265958 -35.277295 71.901859 -35.891961 -4.142319 -6.825484 -0.232048 -1.023859 0.669005 -0.360671 -1.833180 -63.867576 18.405628 42.088014 66.399050 35.676063 -18.903090 -10.900988 3.038831 0.483220 -0.909178 0.274972
-209.958045 57.522229 -69.188782 158.837614 -10.826624 -0.266546 3.763264 10.115994 0.054242 0.220604 0.677329 -0.054449 0.379189 1.165664 -0.092086 3.069873 9.540779 -0.530013 2.108101 16.751277 0.408977 3.762471 -4.672285 0.027735 2.543144 3.351384 -2.804413 -3.693325 -10.150913 -8.290879 -111.164939 -74.603759 138.947759 -3.668497 2.014481 -14.218855 -6.801909 3.835767 0.876885 9.970575 -8.838593 5.729441 86.152704 -68.530745 -125.462332 -1.668139 4.266324 -6.755924 -10.640773 -61.184893 6.335339 -35.360635 71.800845 -36.057102 -4.272790 -6.686386 -0.149309 -1.020729 0.646786 -0.310653 -1.856953 -63.769659 18.696503 42.065398 66.425614 35.593169 -19.007120 -10.934219 3.010799 0.582187 -0.868079 0.306657
